<?xml version="1.0" encoding="UTF-8" standalone="no"?>
<svg
   version="1.0"
   width="2100.000000pt"
   height="2100.000000pt"
   viewBox="0 0 2100.000000 2100.000000"
   preserveAspectRatio="xMidYMid meet"
   id="svg1"
   sodipodi:docname="ok.svg"
   inkscape:version="1.3.2 (091e20ef0f, 2023-11-25)"
   xmlns:inkscape="http://www.inkscape.org/namespaces/inkscape"
   xmlns:sodipodi="http://sodipodi.sourceforge.net/DTD/sodipodi-0.dtd"
   xmlns="http://www.w3.org/2000/svg"
   xmlns:svg="http://www.w3.org/2000/svg">
  <defs
     id="defs1" />
  <sodipodi:namedview
     id="namedview1"
     pagecolor="#ffffff"
     bordercolor="#000000"
     borderopacity="0.25"
     inkscape:showpageshadow="2"
     inkscape:pageopacity="0.0"
     inkscape:pagecheckerboard="0"
     inkscape:deskcolor="#d1d1d1"
     inkscape:document-units="pt"
     showguides="true"
     inkscape:zoom="0.29"
     inkscape:cx="1400"
     inkscape:cy="2227.5862"
     inkscape:window-width="1920"
     inkscape:window-height="1008"
     inkscape:window-x="0"
     inkscape:window-y="0"
     inkscape:window-maximized="1"
     inkscape:current-layer="layer1">
    <sodipodi:guide
       position="-134.48276,2102.5862"
       orientation="0,-1"
       id="guide1"
       inkscape:locked="false" />
  </sodipodi:namedview>
  <metadata
     id="metadata1">
Created by potrace 1.16, written by Peter Selinger 2001-2019
</metadata>
  <g
     inkscape:groupmode="layer"
     id="layer1"
     inkscape:label="Layer 1">
    <rect
       style="fill:#0000ff;stroke-width:0.75"
       id="rect1"
       width="2246.646"
       height="2435.126"
       x="-20.871498"
       y="-18.254984" />
    <g
       transform="matrix(0.1,0,0,-0.1,0,2100)"
       fill="#000000"
       stroke="none"
       id="g1"
       style="fill:#f9f9f9">
      <path
         d="M6605 19839 c-92 -9 -283 -62 -429 -120 -478 -189 -716 -496 -716 -922 0 -97 2 -108 71 -319 l70 -219 -50 -214 c-28 -118 -51 -221 -51 -229 0 -8 30 -27 73 -44 39 -17 110 -46 156 -65 l84 -34 22 -84 c12 -46 41 -152 65 -235 l43 -150 56 4 c31 2 141 12 244 23 104 10 210 19 236 19 l48 0 32 -139 33 -139 -29 -69 c-54 -127 -150 -259 -343 -472 -374 -412 -504 -638 -545 -948 l-7 -52 -106 -79 c-262 -192 -429 -379 -557 -623 l-52 -99 -63 82 c-148 191 -340 368 -730 673 -118 92 -263 208 -321 257 l-106 88 -6 143 c-16 339 -88 558 -229 693 -32 30 -66 74 -76 97 -26 58 -67 104 -116 130 -35 18 -56 22 -141 21 -155 -2 -188 -16 -359 -159 -165 -138 -156 -119 -156 -329 1 -336 96 -585 296 -776 38 -37 90 -81 117 -100 64 -45 116 -125 645 -990 307 -502 580 -883 850 -1187 35 -40 68 -73 73 -73 5 0 48 23 96 51 49 27 264 138 478 246 432 217 545 279 716 395 143 96 216 153 341 269 l96 89 66 -168 c36 -92 272 -693 525 -1337 345 -880 456 -1173 448 -1181 -7 -6 -696 -397 -1532 -869 -836 -472 -1565 -889 -1620 -925 -509 -341 -758 -725 -826 -1275 l-12 -100 625 -1685 c344 -927 633 -1710 641 -1740 33 -116 67 -311 78 -447 35 -429 -90 -856 -362 -1238 -130 -182 -365 -431 -566 -599 -110 -92 -232 -251 -282 -369 -13 -31 -21 -70 -21 -107 0 -54 3 -60 35 -89 59 -52 164 -68 330 -51 l110 11 1085 420 c597 231 1108 431 1137 445 42 20 56 34 75 72 21 44 23 59 22 217 0 156 -3 185 -37 345 -51 242 -47 230 -790 2685 -423 1397 -659 2192 -653 2196 6 3 740 183 1630 400 l1620 394 1275 -1283 1276 -1282 2390 -720 c1315 -396 2428 -735 2475 -752 648 -238 1174 -555 1520 -914 200 -209 347 -432 440 -669 84 -213 249 -453 338 -492 101 -43 172 87 204 370 l12 103 -224 1209 c-123 666 -225 1211 -226 1213 -1 2 -487 68 -1081 146 l-1078 143 -1761 648 -1761 648 -565 921 c-311 507 -695 1131 -853 1388 l-287 467 -150 418 c-261 729 -434 1264 -603 1868 l-68 240 178 1435 c97 789 180 1449 182 1467 l6 32 141 -74 c540 -282 1125 -480 1703 -575 l72 -12 21 -91 c36 -158 117 -445 169 -603 99 -301 182 -506 461 -1139 93 -210 242 -576 238 -581 -2 -1 -23 -14 -48 -28 -251 -142 -439 -533 -400 -830 20 -149 101 -278 226 -361 l53 -36 427 -24 c235 -14 428 -24 430 -23 6 7 55 245 68 333 35 234 30 507 -14 710 -11 50 -83 513 -160 1030 -150 1005 -171 1132 -227 1350 -53 208 -105 353 -188 520 -109 220 -233 382 -430 564 -118 108 -370 293 -445 326 -124 53 -326 158 -600 310 -151 84 -320 175 -375 202 -330 166 -612 257 -920 298 -66 9 -160 25 -210 35 -83 17 -138 33 -465 133 -260 79 -496 114 -685 102 -55 -3 -111 -8 -125 -10 -22 -4 -35 8 -96 88 -410 530 -612 1000 -640 1490 -5 93 -12 128 -41 207 -64 172 -146 309 -252 417 -186 190 -481 283 -806 252z"
         id="path1"
         style="fill:#f9f9f9" />
    </g>
  </g>
</svg>
